<svg xmlns="http://www.w3.org/2000/svg" xmlns:xlink="http://www.w3.org/1999/xlink" width="500" zoomAndPan="magnify" viewBox="0 0 375 374.999991" height="500" preserveAspectRatio="xMidYMid meet" version="1.0"><defs><clipPath id="b38c7a14da"><path d="M 11 38 L 236 38 L 236 336 L 11 336 Z M 11 38 " clip-rule="nonzero"/></clipPath><clipPath id="0a267497a3"><path d="M 11.085938 72.875 L 63.324219 38.601562 L 235.527344 301.078125 L 183.289062 335.351562 Z M 11.085938 72.875 " clip-rule="nonzero"/></clipPath><clipPath id="a4d2dd5976"><path d="M 11.085938 0 L 62.839844 0 L 62.839844 267.78125 L 11.085938 267.78125 Z M 11.085938 0 " clip-rule="nonzero"/></clipPath><clipPath id="95237fec9b"><path d="M 264 40 L 330 40 L 330 338 L 264 338 Z M 264 40 " clip-rule="nonzero"/></clipPath><clipPath id="962959bc16"><path d="M 264.859375 40.894531 L 327.335938 40.523438 L 329.101562 337.128906 L 266.621094 337.5 Z M 264.859375 40.894531 " clip-rule="nonzero"/></clipPath><clipPath id="1bdc97f2c4"><path d="M 183 0 L 364 0 L 364 195 L 183 195 Z M 183 0 " clip-rule="nonzero"/></clipPath><clipPath id="ad844cf227"><path d="M 320.472656 -44.984375 L 363.914062 -16.855469 L 227.183594 194.28125 L 183.742188 166.148438 Z M 320.472656 -44.984375 " clip-rule="nonzero"/></clipPath><clipPath id="b645ad342d"><path d="M 62.839844 286.691406 L 113.644531 286.691406 L 113.644531 337.5 L 62.839844 337.5 Z M 62.839844 286.691406 " clip-rule="nonzero"/></clipPath></defs><rect x="-37.5" width="450" fill="#ffffff" y="-37.499999" height="449.999989" fill-opacity="1"/><rect x="-37.5" width="450" fill="#2e2727" y="-37.499999" height="449.999989" fill-opacity="1"/><g clip-path="url(#b38c7a14da)"><g clip-path="url(#0a267497a3)"><path fill="#ff2e01" d="M 11.085938 72.875 L 63.324219 38.601562 L 235.492188 301.027344 L 183.253906 335.300781 Z M 11.085938 72.875 " fill-opacity="1" fill-rule="nonzero"/></g></g><g clip-path="url(#a4d2dd5976)"><path fill="#2e2727" d="M 11.085938 -29.4375 L 62.839844 -29.4375 L 62.839844 267.742188 L 11.085938 267.742188 Z M 11.085938 -29.4375 " fill-opacity="1" fill-rule="nonzero"/></g><g clip-path="url(#95237fec9b)"><g clip-path="url(#962959bc16)"><path fill="#ff2e01" d="M 264.859375 40.894531 L 327.335938 40.523438 L 329.101562 337.050781 L 266.621094 337.421875 Z M 264.859375 40.894531 " fill-opacity="1" fill-rule="nonzero"/></g></g><g clip-path="url(#1bdc97f2c4)"><g clip-path="url(#ad844cf227)"><path fill="#2e2727" d="M 320.472656 -44.984375 L 363.914062 -16.855469 L 227.210938 194.234375 L 183.769531 166.105469 Z M 320.472656 -44.984375 " fill-opacity="1" fill-rule="nonzero"/></g></g><g clip-path="url(#b645ad342d)"><path fill="#ff2e01" d="M 62.839844 286.691406 L 113.644531 286.691406 L 113.644531 337.5 L 62.839844 337.5 Z M 62.839844 286.691406 " fill-opacity="1" fill-rule="nonzero"/></g></svg>